# xmcd
#
# Track frame offsets:
#	150
#	3096
#	20525
#	40781
#	63014
#	85852
#	111087
#	128329
#	150986
#	169268
#	182480
#	197946
#	211697
#	228592
#	252940
#	267612
#
# Disc length: 3606 seconds
#
# Revision: 0
# Processed by: cddbd v1.5.1PL2 Copyright (c) Steve Scherf et al.
# Submitted via: EasyCDDAExtractor 5.0.2.1
#
DISCID=c30e1410
DTITLE=Various Artist - Real Retro 10
DYEAR=2004
DGENRE=Trance
TTITLE0=Retro People  - Hear Thee No More
TTITLE1=Vicious Delicious - Hocus Pocus
TTITLE2=The Guacimo Project - The Sniper
TTITLE3=Starfighter - Apache
TTITLE4=Partycracher - Get Naked
TTITLE5=Cosmic Gate - The Wave
TTITLE6=Beyond - Opus
TTITLE7=Retro Junky  - Played By The DJ
TTITLE8=SWAT  - The Fly Is Dead
TTITLE9=VDP Project - Somebody Scream
TTITLE10=Yoni  - Dance No More
TTITLE11=Ruffneck Feat. Yavahn - Everybody Be Somebody
TTITLE12=Mysterious Woman - This Is Your Life
TTITLE13=Kay and Fisher  - kay and fishercontinental drift
TTITLE14=Retro People - The Deep
TTITLE15=/ - Data Track
EXTD=
EXTT0=
EXTT1=
EXTT2=
EXTT3=
EXTT4=
EXTT5=
EXTT6=
EXTT7=
EXTT8=
EXTT9=
EXTT10=
EXTT11=
EXTT12=
EXTT13=
EXTT14=
EXTT15=
PLAYORDER=
